<svg xmlns="http://www.w3.org/2000/svg" xmlns:xlink="http://www.w3.org/1999/xlink" width="41" height="47" viewBox="0 0 41 47"><defs><path id="wlzja" d="M875.5 1135a17.5 17.5 0 1 1 0 35 17.5 17.5 0 0 1 0-35z"/><path id="wlzjb" d="M867.54 1167.43c.57.57.57 1.5 0 2.07l-2.06 2.07c-.56.57-1.48.57-2.05 0a1.47 1.47 0 0 1 0-2.07l2.05-2.07a1.45 1.45 0 0 1 2.06 0z"/><path id="wlzjc" d="M883.46 1167.43a1.45 1.45 0 0 0 0 2.05l2.06 2.06a1.45 1.45 0 1 0 2.05-2.06l-2.05-2.05a1.46 1.46 0 0 0-2.06 0z"/><path id="wlzjd" d="M875.48 1146c.82 0 1.48.62 1.48 1.4v3.62h6.56c.81 0 1.47.67 1.47 1.49 0 .81-.66 1.48-1.47 1.48h-8.04a1.44 1.44 0 0 1-1.47-1.48v-5.12c0-.77.66-1.4 1.47-1.4z"/><path id="wlzjf" d="M858.34 1140.01l-.16-.23a8.5 8.5 0 0 1 3-11.69 8.63 8.63 0 0 1 11.7 3.27l.13.25s-4.4.94-7.91 2.96a31.54 31.54 0 0 0-6.76 5.44z"/><path id="wlzjg" d="M892.66 1140.01l.16-.23a8.5 8.5 0 0 0-3-11.69 8.63 8.63 0 0 0-11.7 3.27l-.13.25s4.4.94 7.91 2.96a31.54 31.54 0 0 1 6.76 5.44z"/><path id="wlzjj" d="M875.48 1146c.82 0 1.48.62 1.48 1.4v3.62h6.56c.81 0 1.47.67 1.47 1.49 0 .81-.66 1.48-1.47 1.48h-8.04a1.44 1.44 0 0 1-1.47-1.48v-5.12c0-.77.66-1.4 1.47-1.4z"/><clipPath id="wlzje"><use fill="#fff" xlink:href="#wlzja"/></clipPath><clipPath id="wlzjh"><use fill="#fff" xlink:href="#wlzjb"/></clipPath><clipPath id="wlzji"><use fill="#fff" xlink:href="#wlzjc"/></clipPath><clipPath id="wlzjk"><use fill="#fff" xlink:href="#wlzjd"/></clipPath></defs><g><g transform="translate(-855 -1125)"><g><use fill="#fff" fill-opacity="0" stroke="#267df4" stroke-miterlimit="50" stroke-width="6" clip-path="url(&quot;#wlzje&quot;)" xlink:href="#wlzja"/></g><g><use fill="#fff" fill-opacity="0" stroke="#267df4" stroke-miterlimit="50" stroke-width="3" xlink:href="#wlzjf"/></g><g><use fill="#fff" fill-opacity="0" stroke="#267df4" stroke-miterlimit="50" stroke-width="3" xlink:href="#wlzjg"/></g><g><use fill="#fff" fill-opacity="0" stroke="#267df4" stroke-miterlimit="50" stroke-width="6" clip-path="url(&quot;#wlzjh&quot;)" xlink:href="#wlzjb"/></g><g><use fill="#fff" fill-opacity="0" stroke="#267df4" stroke-miterlimit="50" stroke-width="6" clip-path="url(&quot;#wlzji&quot;)" xlink:href="#wlzjc"/></g><g><use fill="#fff" fill-opacity="0" stroke="#267df4" stroke-miterlimit="50" stroke-width="6" clip-path="url(&quot;#wlzjk&quot;)" xlink:href="#wlzjj"/></g></g></g></svg>